<?xml version="1.0" encoding="iso-8859-1"?>
<!-- Generator: Adobe Illustrator 19.0.0, SVG Export Plug-In . SVG Version: 6.00 Build 0)  -->
<svg version="1.1" id="Layer_1" xmlns="http://www.w3.org/2000/svg" xmlns:xlink="http://www.w3.org/1999/xlink" x="0px" y="0px"
	 viewBox="0 0 512 512" style="enable-background:new 0 0 512 512;" xml:space="preserve">
<path style="fill:#FFFFFF;" d="M93.488,423.72H47.784C23.616,423.696,4.024,404.104,4,379.936V239.2
	c0.024-24.168,19.616-43.76,43.784-43.784h194.4c24.176,0.016,43.776,19.608,43.8,43.784v140.736
	c-0.024,24.168-19.616,43.76-43.784,43.784h-77.032L93.48,482.064L93.488,423.72z"/>
<path style="fill:#E04F5F;" d="M242.2,199.432c21.96,0.024,39.752,17.808,39.784,39.768v140.72
	c-0.024,21.96-17.816,39.752-39.776,39.776h-78.456l-2.208,1.792l-64.056,52.144v-53.92H47.776
	C25.816,419.688,8.024,401.896,8,379.936V239.2c0.024-21.96,17.816-39.76,39.776-39.784h194.4 M242.176,191.416h-194.4
	C21.416,191.496,0.072,212.84,0,239.2v140.72c0.08,26.352,21.424,47.696,47.776,47.776H89.48v62.784l77.104-62.76h75.608
	c26.352-0.08,47.696-21.424,47.776-47.776V239.2c-0.072-26.36-21.416-47.704-47.776-47.784H242.176z"/>
<path style="fill:#25B6D2;" d="M471.688,21.52H178.504c-22.24,0.064-40.248,18.072-40.312,40.312V271.2
	c0.064,22.24,18.072,40.248,40.312,40.312H312.64L435.104,411.2v-99.696h36.584c22.232-0.064,40.24-18.072,40.312-40.304V61.832
	C511.936,39.592,493.928,21.584,471.688,21.52z"/>
<g>
	<rect x="196.752" y="103.44" style="fill:#FFFFFF;" width="256.72" height="8"/>
	<rect x="196.752" y="166.384" style="fill:#FFFFFF;" width="256.72" height="8"/>
	<rect x="196.752" y="229.32" style="fill:#FFFFFF;" width="256.72" height="8"/>
</g>
<g>
</g>
<g>
</g>
<g>
</g>
<g>
</g>
<g>
</g>
<g>
</g>
<g>
</g>
<g>
</g>
<g>
</g>
<g>
</g>
<g>
</g>
<g>
</g>
<g>
</g>
<g>
</g>
<g>
</g>
</svg>
